<mxfile host="app.diagrams.net" agent="Mozilla/5.0 (Windows NT 10.0; Win64; x64) AppleWebKit/537.36 (KHTML, like Gecko) Chrome/135.0.0.0 Safari/537.36 Edg/135.0.0.0" version="26.2.15">
  <diagram name="Page-1" id="n16gf5ILMu0z-XxDJGp-">
    <mxGraphModel dx="1034" dy="536" grid="1" gridSize="10" guides="1" tooltips="1" connect="1" arrows="1" fold="1" page="1" pageScale="1" pageWidth="850" pageHeight="1100" math="0" shadow="0">
      <root>
        <mxCell id="0" />
        <mxCell id="1" parent="0" />
        <mxCell id="n-CixOECC6nO9hWs0rPc-1" value="" style="ellipse;whiteSpace=wrap;html=1;aspect=fixed;fillColor=#000000;" parent="1" vertex="1">
          <mxGeometry x="50" y="310" width="30" height="30" as="geometry" />
        </mxCell>
        <mxCell id="n-CixOECC6nO9hWs0rPc-2" value="Create" style="endArrow=classic;html=1;rounded=0;fontSize=16;align=center;labelPosition=center;verticalLabelPosition=top;verticalAlign=bottom;" parent="1" edge="1">
          <mxGeometry width="50" height="50" relative="1" as="geometry">
            <mxPoint x="80" y="324.5" as="sourcePoint" />
            <mxPoint x="190" y="324.5" as="targetPoint" />
          </mxGeometry>
        </mxCell>
        <mxCell id="n-CixOECC6nO9hWs0rPc-3" value="Pending" style="rounded=1;whiteSpace=wrap;html=1;fontSize=16;" parent="1" vertex="1">
          <mxGeometry x="190" y="295" width="120" height="60" as="geometry" />
        </mxCell>
        <mxCell id="n-CixOECC6nO9hWs0rPc-15" value="" style="edgeStyle=orthogonalEdgeStyle;rounded=0;orthogonalLoop=1;jettySize=auto;html=1;" parent="1" source="n-CixOECC6nO9hWs0rPc-6" target="n-CixOECC6nO9hWs0rPc-9" edge="1">
          <mxGeometry relative="1" as="geometry" />
        </mxCell>
        <mxCell id="n-CixOECC6nO9hWs0rPc-16" value="" style="edgeStyle=orthogonalEdgeStyle;rounded=0;orthogonalLoop=1;jettySize=auto;html=1;" parent="1" source="n-CixOECC6nO9hWs0rPc-6" target="n-CixOECC6nO9hWs0rPc-9" edge="1">
          <mxGeometry relative="1" as="geometry" />
        </mxCell>
        <mxCell id="n-CixOECC6nO9hWs0rPc-6" value="Processing" style="rounded=1;whiteSpace=wrap;html=1;fontSize=16;" parent="1" vertex="1">
          <mxGeometry x="430" y="295" width="120" height="60" as="geometry" />
        </mxCell>
        <mxCell id="n-CixOECC6nO9hWs0rPc-7" value="Packed" style="endArrow=classic;html=1;rounded=0;fontSize=16;align=center;labelPosition=center;verticalLabelPosition=top;verticalAlign=bottom;" parent="1" edge="1">
          <mxGeometry width="50" height="50" relative="1" as="geometry">
            <mxPoint x="550" y="324.5" as="sourcePoint" />
            <mxPoint x="660" y="325" as="targetPoint" />
            <mxPoint as="offset" />
          </mxGeometry>
        </mxCell>
        <mxCell id="n-CixOECC6nO9hWs0rPc-8" value="Shipped" style="rounded=1;whiteSpace=wrap;html=1;fontSize=16;" parent="1" vertex="1">
          <mxGeometry x="660" y="295" width="120" height="60" as="geometry" />
        </mxCell>
        <mxCell id="n-CixOECC6nO9hWs0rPc-9" value="Cancelled&lt;div&gt;(Payment)&lt;/div&gt;" style="rounded=1;whiteSpace=wrap;html=1;fontSize=16;" parent="1" vertex="1">
          <mxGeometry x="430" y="140" width="120" height="60" as="geometry" />
        </mxCell>
        <mxCell id="n-CixOECC6nO9hWs0rPc-37" style="edgeStyle=orthogonalEdgeStyle;rounded=0;orthogonalLoop=1;jettySize=auto;html=1;exitX=1;exitY=0.5;exitDx=0;exitDy=0;" parent="1" edge="1">
          <mxGeometry relative="1" as="geometry">
            <mxPoint x="820" y="65" as="targetPoint" />
            <mxPoint x="780" y="505" as="sourcePoint" />
            <Array as="points">
              <mxPoint x="821" y="505" />
            </Array>
          </mxGeometry>
        </mxCell>
        <mxCell id="n-CixOECC6nO9hWs0rPc-10" value="Delivered" style="rounded=1;whiteSpace=wrap;html=1;fontSize=16;" parent="1" vertex="1">
          <mxGeometry x="660" y="470" width="120" height="60" as="geometry" />
        </mxCell>
        <mxCell id="n-CixOECC6nO9hWs0rPc-12" value="Customer&amp;nbsp;&lt;div&gt;Received&lt;/div&gt;" style="endArrow=classic;html=1;rounded=0;fontSize=16;align=left;labelPosition=right;verticalLabelPosition=middle;verticalAlign=middle;exitX=0.5;exitY=1;exitDx=0;exitDy=0;" parent="1" source="n-CixOECC6nO9hWs0rPc-8" edge="1">
          <mxGeometry width="50" height="50" relative="1" as="geometry">
            <mxPoint x="720" y="360" as="sourcePoint" />
            <mxPoint x="720" y="470" as="targetPoint" />
            <mxPoint as="offset" />
          </mxGeometry>
        </mxCell>
        <mxCell id="n-CixOECC6nO9hWs0rPc-13" value="Payment Failed" style="endArrow=classic;html=1;rounded=0;entryX=0;entryY=0.5;entryDx=0;entryDy=0;labelPosition=center;verticalLabelPosition=top;align=center;verticalAlign=bottom;fontSize=16;" parent="1" target="n-CixOECC6nO9hWs0rPc-9" edge="1">
          <mxGeometry x="0.3684" width="50" height="50" relative="1" as="geometry">
            <mxPoint x="250" y="295" as="sourcePoint" />
            <mxPoint x="420" y="140" as="targetPoint" />
            <Array as="points">
              <mxPoint x="250" y="170" />
            </Array>
            <mxPoint as="offset" />
          </mxGeometry>
        </mxCell>
        <mxCell id="n-CixOECC6nO9hWs0rPc-14" value="Cancel" style="endArrow=classic;html=1;rounded=0;fontSize=16;labelPosition=right;verticalLabelPosition=middle;align=left;verticalAlign=middle;entryX=0.5;entryY=1;entryDx=0;entryDy=0;" parent="1" target="n-CixOECC6nO9hWs0rPc-30" edge="1">
          <mxGeometry x="-0.8462" width="50" height="50" relative="1" as="geometry">
            <mxPoint x="490" y="295" as="sourcePoint" />
            <mxPoint x="700" y="200" as="targetPoint" />
            <Array as="points">
              <mxPoint x="490" y="250" />
              <mxPoint x="720" y="250" />
            </Array>
            <mxPoint as="offset" />
          </mxGeometry>
        </mxCell>
        <mxCell id="n-CixOECC6nO9hWs0rPc-19" value="Approved" style="endArrow=classic;html=1;rounded=0;fontSize=16;labelPosition=right;verticalLabelPosition=middle;align=left;verticalAlign=middle;" parent="1" edge="1">
          <mxGeometry width="50" height="50" relative="1" as="geometry">
            <mxPoint x="489.5" y="140" as="sourcePoint" />
            <mxPoint x="489.5" y="80" as="targetPoint" />
            <mxPoint as="offset" />
          </mxGeometry>
        </mxCell>
        <mxCell id="n-CixOECC6nO9hWs0rPc-20" value="Refunded" style="rounded=1;whiteSpace=wrap;html=1;fontSize=16;" parent="1" vertex="1">
          <mxGeometry x="430" y="20" width="120" height="60" as="geometry" />
        </mxCell>
        <mxCell id="n-CixOECC6nO9hWs0rPc-28" value="" style="ellipse;whiteSpace=wrap;html=1;aspect=fixed;fillColor=#FFFFFF;strokeColor=#000000;" parent="1" vertex="1">
          <mxGeometry x="800" y="35" width="30" height="30" as="geometry" />
        </mxCell>
        <mxCell id="n-CixOECC6nO9hWs0rPc-29" value="" style="ellipse;whiteSpace=wrap;html=1;aspect=fixed;fillColor=#000000;strokeColor=#000000;" parent="1" vertex="1">
          <mxGeometry x="805" y="40" width="20" height="20" as="geometry" />
        </mxCell>
        <mxCell id="n-CixOECC6nO9hWs0rPc-30" value="Cancelled&lt;div&gt;(COD)&lt;/div&gt;" style="rounded=1;whiteSpace=wrap;html=1;fontSize=16;" parent="1" vertex="1">
          <mxGeometry x="660" y="140" width="120" height="60" as="geometry" />
        </mxCell>
        <mxCell id="n-CixOECC6nO9hWs0rPc-31" style="edgeStyle=orthogonalEdgeStyle;rounded=0;orthogonalLoop=1;jettySize=auto;html=1;exitX=0;exitY=0;exitDx=0;exitDy=0;entryX=0.5;entryY=0;entryDx=0;entryDy=0;" parent="1" source="n-CixOECC6nO9hWs0rPc-29" target="n-CixOECC6nO9hWs0rPc-29" edge="1">
          <mxGeometry relative="1" as="geometry" />
        </mxCell>
        <mxCell id="n-CixOECC6nO9hWs0rPc-32" value="" style="endArrow=classic;html=1;rounded=0;exitX=1;exitY=0.5;exitDx=0;exitDy=0;entryX=0;entryY=0.5;entryDx=0;entryDy=0;" parent="1" target="n-CixOECC6nO9hWs0rPc-28" edge="1">
          <mxGeometry width="50" height="50" relative="1" as="geometry">
            <mxPoint x="550" y="49.5" as="sourcePoint" />
            <mxPoint x="790" y="50" as="targetPoint" />
          </mxGeometry>
        </mxCell>
        <mxCell id="n-CixOECC6nO9hWs0rPc-39" value="" style="endArrow=classic;html=1;rounded=0;entryX=0;entryY=1;entryDx=0;entryDy=0;" parent="1" target="n-CixOECC6nO9hWs0rPc-28" edge="1">
          <mxGeometry width="50" height="50" relative="1" as="geometry">
            <mxPoint x="720" y="140" as="sourcePoint" />
            <mxPoint x="770" y="90" as="targetPoint" />
            <Array as="points">
              <mxPoint x="720" y="60" />
            </Array>
          </mxGeometry>
        </mxCell>
        <mxCell id="m3yap8rE7lKuXDOaStOd-1" value="Process Orders" style="endArrow=classic;html=1;rounded=0;entryX=0;entryY=0.5;entryDx=0;entryDy=0;exitX=1;exitY=0.5;exitDx=0;exitDy=0;fontSize=14;labelPosition=center;verticalLabelPosition=top;align=center;verticalAlign=bottom;" parent="1" source="n-CixOECC6nO9hWs0rPc-3" target="n-CixOECC6nO9hWs0rPc-6" edge="1">
          <mxGeometry width="50" height="50" relative="1" as="geometry">
            <mxPoint x="320" y="316.8000183105469" as="sourcePoint" />
            <mxPoint x="360" y="280" as="targetPoint" />
          </mxGeometry>
        </mxCell>
      </root>
    </mxGraphModel>
  </diagram>
</mxfile>
